<svg width="172" height="33" viewBox="0 0 172 33" fill="none" xmlns="http://www.w3.org/2000/svg">
<path d="M48.082 17.877V24H45.8066V8.92188H48.3848C49.6478 8.92188 50.6016 9.00977 51.2461 9.18555C51.8971 9.36133 52.4701 9.69336 52.9648 10.1816C53.8307 11.028 54.2637 12.0957 54.2637 13.3848C54.2637 14.765 53.8014 15.8587 52.877 16.666C51.9525 17.4733 50.7057 17.877 49.1367 17.877H48.082ZM48.082 15.7676H48.9316C51.0215 15.7676 52.0664 14.9635 52.0664 13.3555C52.0664 11.7995 50.9889 11.0215 48.834 11.0215H48.082V15.7676ZM62.6523 14.4883H64.8594V24H62.6523V23.0039C61.7474 23.8503 60.7741 24.2734 59.7324 24.2734C58.4173 24.2734 57.3301 23.7982 56.4707 22.8477C55.6178 21.8776 55.1914 20.6667 55.1914 19.2148C55.1914 17.7891 55.6178 16.6009 56.4707 15.6504C57.3236 14.6999 58.3913 14.2246 59.6738 14.2246C60.7806 14.2246 61.7734 14.6803 62.6523 15.5918V14.4883ZM57.4375 19.2148C57.4375 20.1263 57.6816 20.8685 58.1699 21.4414C58.6712 22.0208 59.3027 22.3105 60.0645 22.3105C60.8783 22.3105 61.5358 22.0306 62.0371 21.4707C62.5384 20.8913 62.7891 20.1556 62.7891 19.2637C62.7891 18.3717 62.5384 17.6361 62.0371 17.0566C61.5358 16.4902 60.8848 16.207 60.084 16.207C59.3288 16.207 58.6973 16.4935 58.1895 17.0664C57.6882 17.6458 57.4375 18.362 57.4375 19.2148ZM76.832 23.7754C76.832 24.2246 76.8158 24.6185 76.7832 24.957C76.7572 25.3021 76.7181 25.6048 76.666 25.8652C76.5098 26.5814 76.2038 27.1966 75.748 27.7109C74.8887 28.7005 73.707 29.1953 72.2031 29.1953C70.9336 29.1953 69.8887 28.8535 69.0684 28.1699C68.222 27.4668 67.7337 26.4935 67.6035 25.25H69.8105C69.8952 25.7188 70.0352 26.0801 70.2305 26.334C70.6862 26.9264 71.3503 27.2227 72.2227 27.2227C73.8307 27.2227 74.6348 26.2363 74.6348 24.2637V22.9355C73.7624 23.8275 72.7565 24.2734 71.6172 24.2734C70.3216 24.2734 69.2604 23.8047 68.4336 22.8672C67.6003 21.9167 67.1836 20.7285 67.1836 19.3027C67.1836 17.916 67.571 16.7376 68.3457 15.7676C69.179 14.7389 70.2793 14.2246 71.6465 14.2246C72.8444 14.2246 73.8405 14.6706 74.6348 15.5625V14.4883H76.832V23.7754ZM74.7227 19.2637C74.7227 18.3392 74.4753 17.6003 73.9805 17.0469C73.4792 16.4805 72.8379 16.1973 72.0566 16.1973C71.2233 16.1973 70.5658 16.5065 70.084 17.125C69.6478 17.6784 69.4297 18.3945 69.4297 19.2734C69.4297 20.1393 69.6478 20.849 70.084 21.4023C70.5592 22.0078 71.2168 22.3105 72.0566 22.3105C72.8965 22.3105 73.5605 22.0046 74.0488 21.3926C74.498 20.8392 74.7227 20.1296 74.7227 19.2637ZM88.2676 19.7617H81.4512C81.5098 20.543 81.7637 21.1647 82.2129 21.627C82.6621 22.0827 83.2383 22.3105 83.9414 22.3105C84.4883 22.3105 84.9408 22.1803 85.2988 21.9199C85.6504 21.6595 86.0508 21.1777 86.5 20.4746L88.3555 21.5098C88.069 21.998 87.7663 22.418 87.4473 22.7695C87.1283 23.1146 86.7865 23.401 86.4219 23.6289C86.0573 23.8503 85.6634 24.013 85.2402 24.1172C84.8171 24.2214 84.3581 24.2734 83.8633 24.2734C82.444 24.2734 81.3047 23.8177 80.4453 22.9062C79.5859 21.9883 79.1562 20.7708 79.1562 19.2539C79.1562 17.75 79.5729 16.5326 80.4062 15.6016C81.2461 14.6836 82.3594 14.2246 83.7461 14.2246C85.1458 14.2246 86.2526 14.6706 87.0664 15.5625C87.8737 16.4479 88.2773 17.6751 88.2773 19.2441L88.2676 19.7617ZM86.0117 17.9648C85.7057 16.793 84.9668 16.207 83.7949 16.207C83.528 16.207 83.2773 16.2493 83.043 16.334C82.8086 16.4121 82.5938 16.5293 82.3984 16.6855C82.2096 16.8353 82.0469 17.0176 81.9102 17.2324C81.7734 17.4473 81.6693 17.6914 81.5977 17.9648H86.0117ZM108.414 9.73242V12.4277C107.099 11.3275 105.738 10.7773 104.332 10.7773C102.783 10.7773 101.477 11.334 100.416 12.4473C99.3483 13.554 98.8145 14.9082 98.8145 16.5098C98.8145 18.0918 99.3483 19.4264 100.416 20.5137C101.484 21.6009 102.792 22.1445 104.342 22.1445C105.143 22.1445 105.823 22.0143 106.383 21.7539C106.695 21.6237 107.018 21.4479 107.35 21.2266C107.688 21.0052 108.043 20.7383 108.414 20.4258V23.1699C107.112 23.9056 105.745 24.2734 104.312 24.2734C102.158 24.2734 100.318 23.5215 98.7949 22.0176C97.278 20.5007 96.5195 18.6712 96.5195 16.5293C96.5195 14.6087 97.1543 12.8965 98.4238 11.3926C99.9863 9.55013 102.008 8.62891 104.488 8.62891C105.842 8.62891 107.151 8.99674 108.414 9.73242ZM117.887 14.4883H120.094V24H117.887V23.0039C116.982 23.8503 116.008 24.2734 114.967 24.2734C113.652 24.2734 112.564 23.7982 111.705 22.8477C110.852 21.8776 110.426 20.6667 110.426 19.2148C110.426 17.7891 110.852 16.6009 111.705 15.6504C112.558 14.6999 113.626 14.2246 114.908 14.2246C116.015 14.2246 117.008 14.6803 117.887 15.5918V14.4883ZM112.672 19.2148C112.672 20.1263 112.916 20.8685 113.404 21.4414C113.906 22.0208 114.537 22.3105 115.299 22.3105C116.113 22.3105 116.77 22.0306 117.271 21.4707C117.773 20.8913 118.023 20.1556 118.023 19.2637C118.023 18.3717 117.773 17.6361 117.271 17.0566C116.77 16.4902 116.119 16.207 115.318 16.207C114.563 16.207 113.932 16.4935 113.424 17.0664C112.923 17.6458 112.672 18.362 112.672 19.2148ZM130.27 14.8984V17.8184C129.768 17.2064 129.319 16.7865 128.922 16.5586C128.531 16.3242 128.072 16.207 127.545 16.207C126.718 16.207 126.031 16.4967 125.484 17.0762C124.938 17.6556 124.664 18.3815 124.664 19.2539C124.664 20.1458 124.928 20.8783 125.455 21.4512C125.989 22.0241 126.669 22.3105 127.496 22.3105C128.023 22.3105 128.489 22.1966 128.893 21.9688C129.283 21.7474 129.742 21.3177 130.27 20.6797V23.5801C129.378 24.0423 128.486 24.2734 127.594 24.2734C126.122 24.2734 124.892 23.7982 123.902 22.8477C122.913 21.8906 122.418 20.7025 122.418 19.2832C122.418 17.8639 122.919 16.666 123.922 15.6895C124.924 14.7129 126.155 14.2246 127.613 14.2246C128.551 14.2246 129.436 14.4492 130.27 14.8984ZM132.926 7.50586H135.123V15.2793C135.904 14.5762 136.767 14.2246 137.711 14.2246C138.785 14.2246 139.645 14.5729 140.289 15.2695C140.836 15.875 141.109 16.8418 141.109 18.1699V24H138.912V18.375C138.912 17.6133 138.775 17.0632 138.502 16.7246C138.235 16.3796 137.802 16.207 137.203 16.207C136.435 16.207 135.895 16.4447 135.582 16.9199C135.276 17.4017 135.123 18.2285 135.123 19.4004V24H132.926V7.50586ZM152.564 19.7617H145.748C145.807 20.543 146.061 21.1647 146.51 21.627C146.959 22.0827 147.535 22.3105 148.238 22.3105C148.785 22.3105 149.238 22.1803 149.596 21.9199C149.947 21.6595 150.348 21.1777 150.797 20.4746L152.652 21.5098C152.366 21.998 152.063 22.418 151.744 22.7695C151.425 23.1146 151.083 23.401 150.719 23.6289C150.354 23.8503 149.96 24.013 149.537 24.1172C149.114 24.2214 148.655 24.2734 148.16 24.2734C146.741 24.2734 145.602 23.8177 144.742 22.9062C143.883 21.9883 143.453 20.7708 143.453 19.2539C143.453 17.75 143.87 16.5326 144.703 15.6016C145.543 14.6836 146.656 14.2246 148.043 14.2246C149.443 14.2246 150.549 14.6706 151.363 15.5625C152.171 16.4479 152.574 17.6751 152.574 19.2441L152.564 19.7617ZM150.309 17.9648C150.003 16.793 149.264 16.207 148.092 16.207C147.825 16.207 147.574 16.2493 147.34 16.334C147.105 16.4121 146.891 16.5293 146.695 16.6855C146.507 16.8353 146.344 17.0176 146.207 17.2324C146.07 17.4473 145.966 17.6914 145.895 17.9648H150.309Z" fill="black"/>
<circle cx="16.5" cy="16.5" r="16.5" fill="#2563EB"/>
<circle cx="16.5" cy="16.5" r="12.5" fill="white"/>
<circle cx="16.5" cy="16.5" r="8.5" fill="#2563EB"/>
<path d="M23.3333 5.5V11C22.6565 15.0837 24.4188 15.5668 23.3333 22L23.3333 27.5C32.302 21.0135 31.7723 12.2442 23.3333 5.5Z" fill="#2563EB" stroke="#2563EB"/>
</svg>
